<?xml version="1.0" encoding="UTF-8"?>
<svg version="1.1" xmlns="http://www.w3.org/2000/svg" width="200" height="200">
<path d="M0 0 C20.19863193 1.63282354 43.91246731 6.93287195 59.58203125 20.65234375 C61.76730176 22.55621044 61.76730176 22.55621044 64.3515625 22.296875 C67.50519774 21.09022493 70.09001473 19.4821876 72.9140625 17.62890625 C91.38265247 5.91935823 114.77692756 -1.99237469 136.9140625 0.31640625 C138.9140625 2.31640625 138.9140625 2.31640625 139.109375 5.79296875 C139.09607743 7.17591593 139.07222482 8.55879279 139.0390625 9.94140625 C139.03003906 10.6478125 139.02101562 11.35421875 139.01171875 12.08203125 C138.98813853 13.82696723 138.95226711 15.5717292 138.9140625 17.31640625 C139.97367188 17.29320313 141.03328125 17.27 142.125 17.24609375 C143.5130138 17.22733681 144.9010352 17.20913653 146.2890625 17.19140625 C147.33707031 17.16626953 147.33707031 17.16626953 148.40625 17.140625 C150.24303736 17.12296358 152.08008213 17.21337364 153.9140625 17.31640625 C155.9140625 19.31640625 155.9140625 19.31640625 156.16295147 21.71211243 C156.1624067 22.72533066 156.16186193 23.73854889 156.16130066 24.7824707 C156.16549515 25.94348297 156.16968964 27.10449524 156.17401123 28.3006897 C156.16839172 29.58075897 156.16277222 30.86082825 156.15698242 32.1796875 C156.15805492 33.53632702 156.15999313 34.8929661 156.16273499 36.24960327 C156.1675916 39.93962913 156.15991751 43.62953447 156.14978194 47.31954575 C156.14101443 51.17567564 156.14275864 55.03180162 156.1431427 58.88793945 C156.14220545 65.36444115 156.13351335 71.84089607 156.11987305 78.31738281 C156.10414688 85.81207997 156.09887491 93.30672587 156.0996086 100.80143833 C156.10021838 108.00210344 156.0951175 115.20275179 156.08681679 122.40341187 C156.08328041 125.47195567 156.08145303 128.54049356 156.08092308 131.60903931 C156.07992053 135.22050486 156.07383109 138.83192716 156.06375694 142.44337845 C156.05942943 144.40628873 156.06000453 146.36920788 156.06069946 148.3321228 C156.05643448 149.49313507 156.05216949 150.65414734 156.04777527 151.8503418 C156.04609942 152.86356003 156.04442358 153.87677826 156.04269695 154.92070007 C155.9140625 157.31640625 155.9140625 157.31640625 154.9140625 159.31640625 C153.79558426 159.32853653 153.79558426 159.32853653 152.6545105 159.34091187 C145.56555193 159.41943468 138.47676971 159.50688946 131.38804436 159.60393333 C127.74522445 159.65350001 124.10242815 159.69982691 120.45947266 159.73828125 C116.93205424 159.77564304 113.40485507 159.82212636 109.87762833 159.87446976 C107.90285794 159.90153368 105.92797039 159.91957974 103.95309448 159.93734741 C92.78944167 160.1162001 81.48975608 160.46473329 71.3515625 165.50390625 C65.56546535 168.36016461 65.56546535 168.36016461 62.35546875 168.14453125 C58.65160764 166.88818156 55.16854919 165.23389648 51.6328125 163.5703125 C41.45815788 160.13957287 30.72086257 159.99767654 20.08203125 159.90234375 C18.71054497 159.88357339 17.33906953 159.86399594 15.96760559 159.84365845 C12.40532913 159.79294937 8.84301546 159.75300178 5.28057861 159.71551514 C1.62641672 159.67508507 -2.02759873 159.62417351 -5.68164062 159.57421875 C-12.81629831 159.4781875 -19.95104855 159.3935568 -27.0859375 159.31640625 C-28.39352414 156.70123297 -28.21480455 154.78007411 -28.21965027 151.8503418 C-28.22604774 150.10882339 -28.22604774 150.10882339 -28.23257446 148.3321228 C-28.23212128 147.05205353 -28.23166809 145.77198425 -28.23120117 144.453125 C-28.23419208 143.09648546 -28.23759444 141.73984678 -28.24137878 140.38320923 C-28.25022893 136.69322387 -28.25255729 133.00326169 -28.25319457 129.31326675 C-28.25414274 126.23651604 -28.25781988 123.15977075 -28.26136667 120.08302212 C-28.2695147 112.82715519 -28.27195054 105.57130067 -28.27124023 98.31542969 C-28.270639 90.82071449 -28.28119911 83.32607117 -28.2969839 75.83137417 C-28.31003998 69.40417611 -28.31542496 62.97700161 -28.31478482 56.54979038 C-28.31452931 52.70775897 -28.31740978 48.86579144 -28.32796288 45.02377319 C-28.33761173 41.41228645 -28.33774531 37.80092509 -28.33044624 34.18943405 C-28.32889444 32.22651313 -28.33726908 30.26359231 -28.34588623 28.3006897 C-28.34169174 27.13967743 -28.33749725 25.97866516 -28.33317566 24.7824707 C-28.33372043 23.76925247 -28.33426519 22.75603424 -28.33482647 21.71211243 C-28.0859375 19.31640625 -28.0859375 19.31640625 -26.0859375 17.31640625 C-22.828125 17.12109375 -22.828125 17.12109375 -18.9609375 17.19140625 C-17.03894531 17.21847656 -17.03894531 17.21847656 -15.078125 17.24609375 C-13.59699219 17.28089844 -13.59699219 17.28089844 -12.0859375 17.31640625 C-12.13814453 15.97835938 -12.13814453 15.97835938 -12.19140625 14.61328125 C-12.21847656 13.4428125 -12.24554688 12.27234375 -12.2734375 11.06640625 C-12.30824219 9.90625 -12.34304687 8.74609375 -12.37890625 7.55078125 C-11.63760008 -0.63323883 -7.02541456 -0.24144995 0 0 Z M-2.0859375 10.31640625 C-2.0859375 51.23640625 -2.0859375 92.15640625 -2.0859375 134.31640625 C3.8540625 134.97640625 9.7940625 135.63640625 15.9140625 136.31640625 C30.23920123 139.57741344 43.20049984 144.28485165 55.71875 151.99609375 C57.62992796 153.40230499 57.62992796 153.40230499 58.9140625 153.31640625 C59.12451193 137.66108741 59.28311131 122.00615173 59.38037205 106.34976864 C59.42673728 99.07978407 59.48992054 91.81067943 59.59301758 84.54125977 C59.68285846 78.20350487 59.74081738 71.86638727 59.76085895 65.52801329 C59.77257146 62.17294715 59.79999352 58.81970374 59.86563301 55.46522331 C59.93098838 51.71521877 59.9399639 47.96898835 59.93579102 44.21850586 C59.98432724 42.55909721 59.98432724 42.55909721 60.03384399 40.86616516 C59.97465398 34.97459462 59.97465398 34.97459462 56.96328545 30.10515022 C54.68747391 28.30719633 52.4146269 26.78107703 49.9140625 25.31640625 C49.31690713 24.92790465 48.71975176 24.53940306 48.10450077 24.13912868 C33.0405043 14.58048093 15.54278782 10.31640625 -2.0859375 10.31640625 Z M109.6640625 11.87890625 C108.95080811 12.05526611 108.23755371 12.23162598 107.50268555 12.41333008 C94.07560904 15.94194745 78.87118154 22.35928721 68.9140625 32.31640625 C68.61574645 34.54065124 68.61574645 34.54065124 68.67355347 37.15054321 C68.67080414 38.17140518 68.66805481 39.19226715 68.66522217 40.24406433 C68.67241272 41.36831314 68.67960327 42.49256195 68.68701172 43.65087891 C68.68671967 44.831353 68.68642761 46.01182709 68.68612671 47.22807312 C68.68728333 50.46965544 68.69733073 53.71106627 68.71127462 56.95261431 C68.72375636 60.3385497 68.72495046 63.72448827 68.72732544 67.11044312 C68.73354775 73.52424084 68.74996868 79.93797058 68.77002442 86.35173833 C68.7923601 93.6527245 68.80337097 100.95371388 68.81341529 108.25472569 C68.83433429 123.27532379 68.8695248 138.29585823 68.9140625 153.31640625 C69.66543488 152.90367462 70.41680725 152.49094299 71.19094849 152.06570435 C72.17868256 151.52469086 73.16641663 150.98367737 74.18408203 150.42626953 C75.16232941 149.8897879 76.14057678 149.35330627 77.14846802 148.80056763 C93.93923957 139.78976912 111.031765 135.88993104 129.9140625 134.31640625 C129.9140625 93.39640625 129.9140625 52.47640625 129.9140625 10.31640625 C119.53722001 10.21837734 119.53722001 10.21837734 109.6640625 11.87890625 Z M-19.0859375 26.31640625 C-19.0859375 67.23640625 -19.0859375 108.15640625 -19.0859375 150.31640625 C-2.5859375 150.31640625 13.9140625 150.31640625 30.9140625 150.31640625 C21.62113706 144.12112263 8.97537206 143.69724404 -1.84692383 143.08789062 C-2.75724365 143.02794922 -3.66756348 142.96800781 -4.60546875 142.90625 C-5.82907104 142.84232056 -5.82907104 142.84232056 -7.07739258 142.77709961 C-9.0859375 142.31640625 -9.0859375 142.31640625 -11.0859375 139.31640625 C-11.34765053 137.18249989 -11.34765053 137.18249989 -11.3644104 134.66572571 C-11.37557388 133.71080231 -11.38673737 132.75587891 -11.39823914 131.77201843 C-11.40039932 130.72617081 -11.40255951 129.68032318 -11.40478516 128.6027832 C-11.41483078 127.50019165 -11.4248764 126.3976001 -11.43522644 125.26159668 C-11.46617045 121.60929903 -11.48312488 117.95707505 -11.5 114.3046875 C-11.5187026 111.77548076 -11.53827532 109.24628033 -11.5586853 106.71708679 C-11.60484953 100.73545447 -11.64222326 94.75382941 -11.67535818 88.77211589 C-11.7135712 81.96195985 -11.76298347 75.15189954 -11.81334233 68.34182417 C-11.91667986 54.33342252 -12.00593431 40.32495921 -12.0859375 26.31640625 C-14.3959375 26.31640625 -16.7059375 26.31640625 -19.0859375 26.31640625 Z M138.9140625 26.31640625 C138.90983056 26.90816367 138.90559862 27.49992109 138.90123844 28.10961056 C138.79806633 42.48878861 138.68944901 56.86791784 138.57472324 71.24700832 C138.5193756 78.20054356 138.46589113 85.15408393 138.41674805 92.10766602 C138.36936117 98.81201734 138.3168415 105.51631012 138.26112175 112.22059822 C138.24066327 114.78476716 138.22195612 117.34895065 138.20498848 119.91314507 C138.18102154 123.4908973 138.15095679 127.0685482 138.11938477 130.64624023 C138.1136293 131.71797989 138.10787384 132.78971954 138.10194397 133.89393616 C138.08726074 135.34743973 138.08726074 135.34743973 138.07228088 136.83030701 C138.06582833 137.67743476 138.05937578 138.52456251 138.0527277 139.3973608 C137.9140625 141.31640625 137.9140625 141.31640625 136.9140625 142.31640625 C135.45824115 142.49589878 133.99503684 142.61627258 132.53125 142.7109375 C113.92142774 143.5864444 113.92142774 143.5864444 96.9140625 150.31640625 C113.4140625 150.31640625 129.9140625 150.31640625 146.9140625 150.31640625 C146.9140625 109.39640625 146.9140625 68.47640625 146.9140625 26.31640625 C144.2740625 26.31640625 141.6340625 26.31640625 138.9140625 26.31640625 Z " fill="#000000" transform="translate(36.0859375,15.68359375)"/>
</svg>
